<svg width="127" height="21" viewBox="0 0 127 21" fill="none" xmlns="http://www.w3.org/2000/svg">
<path d="M7.84023 15.1402C6.5469 15.1402 5.35357 14.8402 4.26023 14.2402C3.18023 13.6269 2.32023 12.7802 1.68023 11.7002C1.05357 10.6069 0.740234 9.3802 0.740234 8.0202C0.740234 6.66019 1.05357 5.44019 1.68023 4.3602C2.32023 3.28019 3.18023 2.44019 4.26023 1.84019C5.35357 1.22686 6.5469 0.920195 7.84023 0.920195C9.1469 0.920195 10.3402 1.22686 11.4202 1.84019C12.5136 2.44019 13.3736 3.28019 14.0002 4.3602C14.6269 5.44019 14.9402 6.66019 14.9402 8.0202C14.9402 9.3802 14.6269 10.6069 14.0002 11.7002C13.3736 12.7802 12.5136 13.6269 11.4202 14.2402C10.3402 14.8402 9.1469 15.1402 7.84023 15.1402ZM7.84023 13.1602C8.76023 13.1602 9.58024 12.9535 10.3002 12.5402C11.0202 12.1135 11.5802 11.5135 11.9802 10.7402C12.3936 9.95353 12.6002 9.04686 12.6002 8.0202C12.6002 6.99353 12.3936 6.09353 11.9802 5.3202C11.5802 4.54686 11.0202 3.95353 10.3002 3.5402C9.58024 3.12686 8.76023 2.92019 7.84023 2.92019C6.92023 2.92019 6.10023 3.12686 5.38023 3.5402C4.66023 3.95353 4.09357 4.54686 3.68023 5.3202C3.28023 6.09353 3.08023 6.99353 3.08023 8.0202C3.08023 9.04686 3.28023 9.95353 3.68023 10.7402C4.09357 11.5135 4.66023 12.1135 5.38023 12.5402C6.10023 12.9535 6.92023 13.1602 7.84023 13.1602Z" fill="white"/>
<path d="M21.9638 15.1802C20.9238 15.1802 19.9838 14.9469 19.1438 14.4802C18.3038 14.0002 17.6438 13.3335 17.1638 12.4802C16.6838 11.6135 16.4438 10.6135 16.4438 9.4802C16.4438 8.3602 16.6905 7.36686 17.1838 6.5002C17.6772 5.63353 18.3505 4.96686 19.2038 4.50019C20.0572 4.03353 21.0105 3.8002 22.0638 3.8002C23.1172 3.8002 24.0705 4.03353 24.9238 4.50019C25.7772 4.96686 26.4505 5.63353 26.9438 6.5002C27.4372 7.36686 27.6838 8.3602 27.6838 9.4802C27.6838 10.6002 27.4305 11.5935 26.9238 12.4602C26.4172 13.3269 25.7238 14.0002 24.8438 14.4802C23.9772 14.9469 23.0172 15.1802 21.9638 15.1802ZM21.9638 13.2002C22.5505 13.2002 23.0972 13.0602 23.6038 12.7802C24.1238 12.5002 24.5438 12.0802 24.8638 11.5202C25.1838 10.9602 25.3438 10.2802 25.3438 9.4802C25.3438 8.6802 25.1905 8.00686 24.8838 7.4602C24.5772 6.9002 24.1705 6.4802 23.6638 6.2002C23.1572 5.9202 22.6105 5.7802 22.0238 5.7802C21.4372 5.7802 20.8905 5.9202 20.3838 6.2002C19.8905 6.4802 19.4972 6.9002 19.2038 7.4602C18.9105 8.00686 18.7638 8.6802 18.7638 9.4802C18.7638 10.6669 19.0638 11.5869 19.6638 12.2402C20.2772 12.8802 21.0438 13.2002 21.9638 13.2002Z" fill="white"/>
<path d="M32.2177 0.200195V15.0002H29.9377V0.200195H32.2177Z" fill="white"/>
<path d="M39.9912 15.1802C38.9512 15.1802 38.0112 14.9469 37.1712 14.4802C36.3312 14.0002 35.6712 13.3335 35.1912 12.4802C34.7112 11.6135 34.4712 10.6135 34.4712 9.4802C34.4712 8.3602 34.7178 7.36686 35.2112 6.5002C35.7045 5.63353 36.3778 4.96686 37.2312 4.50019C38.0845 4.03353 39.0378 3.8002 40.0912 3.8002C41.1445 3.8002 42.0978 4.03353 42.9512 4.50019C43.8045 4.96686 44.4778 5.63353 44.9712 6.5002C45.4645 7.36686 45.7112 8.3602 45.7112 9.4802C45.7112 10.6002 45.4578 11.5935 44.9512 12.4602C44.4445 13.3269 43.7512 14.0002 42.8712 14.4802C42.0045 14.9469 41.0445 15.1802 39.9912 15.1802ZM39.9912 13.2002C40.5778 13.2002 41.1245 13.0602 41.6312 12.7802C42.1512 12.5002 42.5712 12.0802 42.8912 11.5202C43.2112 10.9602 43.3712 10.2802 43.3712 9.4802C43.3712 8.6802 43.2178 8.00686 42.9112 7.4602C42.6045 6.9002 42.1978 6.4802 41.6912 6.2002C41.1845 5.9202 40.6378 5.7802 40.0512 5.7802C39.4645 5.7802 38.9178 5.9202 38.4112 6.2002C37.9178 6.4802 37.5245 6.9002 37.2312 7.4602C36.9378 8.00686 36.7912 8.6802 36.7912 9.4802C36.7912 10.6669 37.0912 11.5869 37.6912 12.2402C38.3045 12.8802 39.0712 13.2002 39.9912 13.2002Z" fill="white"/>
<path d="M53.5251 3.8002C54.3917 3.8002 55.1651 3.9802 55.8451 4.34019C56.5384 4.70019 57.0784 5.23353 57.4651 5.9402C57.8517 6.64686 58.0451 7.5002 58.0451 8.5002V15.0002H55.7851V8.84019C55.7851 7.85353 55.5384 7.10019 55.0451 6.58019C54.5517 6.04686 53.8784 5.7802 53.0251 5.7802C52.1717 5.7802 51.4917 6.04686 50.9851 6.58019C50.4917 7.10019 50.2451 7.85353 50.2451 8.84019V15.0002H47.9651V3.9802H50.2451V5.2402C50.6184 4.78686 51.0917 4.43353 51.6651 4.1802C52.2517 3.92686 52.8717 3.8002 53.5251 3.8002Z" fill="white"/>
<path d="M65.3934 3.8002C66.2467 3.8002 67 3.97353 67.6534 4.3202C68.32 4.65353 68.84 5.07353 69.2134 5.5802V3.9802H71.5134V15.1802C71.5134 16.1935 71.3 17.0935 70.8734 17.8802C70.4467 18.6802 69.8267 19.3069 69.0134 19.7602C68.2134 20.2135 67.2534 20.4402 66.1334 20.4402C64.64 20.4402 63.4 20.0869 62.4134 19.3802C61.4267 18.6869 60.8667 17.7402 60.7334 16.5402H62.9934C63.1667 17.1135 63.5334 17.5735 64.0934 17.9202C64.6667 18.2802 65.3467 18.4602 66.1334 18.4602C67.0534 18.4602 67.7934 18.1802 68.3534 17.6202C68.9267 17.0602 69.2134 16.2469 69.2134 15.1802V13.3402C68.8267 13.8602 68.3 14.3002 67.6334 14.6602C66.98 15.0069 66.2334 15.1802 65.3934 15.1802C64.4334 15.1802 63.5534 14.9402 62.7534 14.4602C61.9667 13.9669 61.34 13.2869 60.8734 12.4202C60.42 11.5402 60.1934 10.5469 60.1934 9.44019C60.1934 8.33353 60.42 7.35353 60.8734 6.5002C61.34 5.64686 61.9667 4.98686 62.7534 4.52019C63.5534 4.04019 64.4334 3.8002 65.3934 3.8002ZM69.2134 9.4802C69.2134 8.7202 69.0534 8.06019 68.7334 7.50019C68.4267 6.94019 68.02 6.51353 67.5134 6.22019C67.0067 5.92686 66.46 5.7802 65.8734 5.7802C65.2867 5.7802 64.74 5.92686 64.2334 6.22019C63.7267 6.50019 63.3134 6.9202 62.9934 7.4802C62.6867 8.02686 62.5334 8.68019 62.5334 9.44019C62.5334 10.2002 62.6867 10.8669 62.9934 11.4402C63.3134 12.0135 63.7267 12.4535 64.2334 12.7602C64.7534 13.0535 65.3 13.2002 65.8734 13.2002C66.46 13.2002 67.0067 13.0535 67.5134 12.7602C68.02 12.4669 68.4267 12.0402 68.7334 11.4802C69.0534 10.9069 69.2134 10.2402 69.2134 9.4802Z" fill="white"/>
<path d="M78.508 15.1802C77.6414 15.1802 76.8614 15.0269 76.1681 14.7202C75.4881 14.4002 74.948 13.9735 74.548 13.4402C74.148 12.8935 73.9347 12.2869 73.9081 11.6202H76.2681C76.3081 12.0869 76.528 12.4802 76.928 12.8002C77.3414 13.1069 77.8547 13.2602 78.468 13.2602C79.108 13.2602 79.6014 13.1402 79.9481 12.9002C80.3081 12.6469 80.4881 12.3269 80.4881 11.9402C80.4881 11.5269 80.288 11.2202 79.888 11.0202C79.5014 10.8202 78.8814 10.6002 78.028 10.3602C77.2014 10.1335 76.528 9.91353 76.008 9.70019C75.488 9.48686 75.0347 9.16019 74.648 8.72019C74.2747 8.28019 74.0881 7.7002 74.0881 6.9802C74.0881 6.39353 74.2614 5.86019 74.608 5.38019C74.9547 4.88686 75.4481 4.5002 76.0881 4.22019C76.7414 3.9402 77.488 3.8002 78.328 3.8002C79.5814 3.8002 80.5881 4.1202 81.3481 4.76019C82.1214 5.38686 82.5347 6.24686 82.5881 7.3402H80.3081C80.2681 6.84686 80.068 6.45353 79.708 6.1602C79.348 5.86686 78.8614 5.72019 78.248 5.72019C77.648 5.72019 77.188 5.83353 76.868 6.06019C76.548 6.28686 76.388 6.58686 76.388 6.9602C76.388 7.25353 76.4947 7.5002 76.708 7.7002C76.9214 7.9002 77.1814 8.06019 77.4881 8.18019C77.7947 8.28686 78.2481 8.42686 78.8481 8.60019C79.6481 8.81353 80.3014 9.03353 80.8081 9.2602C81.3281 9.47353 81.7747 9.79353 82.148 10.2202C82.5214 10.6469 82.7147 11.2135 82.7281 11.9202C82.7281 12.5469 82.5547 13.1069 82.208 13.6002C81.8614 14.0935 81.3681 14.4802 80.7281 14.7602C80.1014 15.0402 79.3614 15.1802 78.508 15.1802Z" fill="white"/>
<path d="M99.9916 3.9802L96.5716 15.0002H94.1716L91.9516 6.8602L89.7316 15.0002H87.3316L83.8916 3.9802H86.2116L88.5116 12.8402L90.8516 3.9802H93.2316L95.4716 12.8002L97.7516 3.9802H99.9916Z" fill="white"/>
<path d="M100.936 9.44019C100.936 8.33353 101.162 7.35353 101.616 6.5002C102.082 5.64686 102.709 4.98686 103.496 4.52019C104.296 4.04019 105.176 3.8002 106.136 3.8002C107.002 3.8002 107.756 3.97353 108.396 4.3202C109.049 4.65353 109.569 5.07353 109.956 5.5802V3.9802H112.256V15.0002H109.956V13.3602C109.569 13.8802 109.042 14.3135 108.376 14.6602C107.709 15.0069 106.949 15.1802 106.096 15.1802C105.149 15.1802 104.282 14.9402 103.496 14.4602C102.709 13.9669 102.082 13.2869 101.616 12.4202C101.162 11.5402 100.936 10.5469 100.936 9.44019ZM109.956 9.4802C109.956 8.7202 109.796 8.06019 109.476 7.50019C109.169 6.94019 108.762 6.51353 108.256 6.22019C107.749 5.92686 107.202 5.7802 106.616 5.7802C106.029 5.7802 105.482 5.92686 104.976 6.22019C104.469 6.50019 104.056 6.9202 103.736 7.4802C103.429 8.02686 103.276 8.68019 103.276 9.44019C103.276 10.2002 103.429 10.8669 103.736 11.4402C104.056 12.0135 104.469 12.4535 104.976 12.7602C105.496 13.0535 106.042 13.2002 106.616 13.2002C107.202 13.2002 107.749 13.0535 108.256 12.7602C108.762 12.4669 109.169 12.0402 109.476 11.4802C109.796 10.9069 109.956 10.2402 109.956 9.4802Z" fill="white"/>
<path d="M117.53 5.60019C117.917 5.09353 118.444 4.66686 119.11 4.3202C119.777 3.97353 120.53 3.8002 121.37 3.8002C122.33 3.8002 123.204 4.04019 123.99 4.52019C124.79 4.98686 125.417 5.64686 125.87 6.5002C126.324 7.35353 126.55 8.33353 126.55 9.44019C126.55 10.5469 126.324 11.5402 125.87 12.4202C125.417 13.2869 124.79 13.9669 123.99 14.4602C123.204 14.9402 122.33 15.1802 121.37 15.1802C120.53 15.1802 119.784 15.0135 119.13 14.6802C118.477 14.3335 117.944 13.9069 117.53 13.4002V20.2402H115.25V3.9802H117.53V5.60019ZM124.23 9.44019C124.23 8.68019 124.07 8.02686 123.75 7.4802C123.444 6.9202 123.03 6.50019 122.51 6.22019C122.004 5.92686 121.457 5.7802 120.87 5.7802C120.297 5.7802 119.75 5.92686 119.23 6.22019C118.724 6.51353 118.31 6.94019 117.99 7.50019C117.684 8.06019 117.53 8.7202 117.53 9.4802C117.53 10.2402 117.684 10.9069 117.99 11.4802C118.31 12.0402 118.724 12.4669 119.23 12.7602C119.75 13.0535 120.297 13.2002 120.87 13.2002C121.457 13.2002 122.004 13.0535 122.51 12.7602C123.03 12.4535 123.444 12.0135 123.75 11.4402C124.07 10.8669 124.23 10.2002 124.23 9.44019Z" fill="white"/>
</svg>
